<svg xmlns="http://www.w3.org/2000/svg" version="1.0" preserveAspectRatio="xMidYMid meet" viewBox="87.22 56.07 170.63 279.93">

<g transform="translate(0.000000,500.000000) scale(0.100000,-0.100000)" fill="#000000" stroke="none">
<path d="M1593 4425 c-49 -15 -124 -57 -143 -79 -9 -12 -32 -16 -94 -16 -110 0 -167 -21 -234 -87 -72 -72 -96 -127 -96 -228 -1 -61 4 -91 20 -126 29 -61 86 -115 145 -134 28 -10 49 -23 49 -31 0 -17 2 -17 -50 1 -50 18 -90 19 -145 4 -54 -15 -130 -93 -146 -151 -14 -55 -7 -154 16 -198 22 -44 82 -100 106 -100 27 0 28 -9 13 -80 -34 -163 0 -328 89 -427 31 -35 5 -27 -29 8 -40 42 -84 65 -94 48 -5 -7 -6 -19 -3 -27 5 -12 2 -12 -15 -3 -38 20 -69 -8 -40 -37 9 -9 6 -12 -14 -12 -38 0 -45 -19 -17 -42 l24 -20 -26 6 c-34 7 -47 -19 -19 -36 26 -16 25 -24 -2 -31 -20 -6 -20 -8 -6 -28 8 -13 34 -29 56 -37 31 -10 51 -26 72 -58 55 -79 126 -141 195 -170 31 -13 35 -18 35 -52 0 -21 -2 -41 -5 -44 -3 -3 -19 7 -35 23 -35 36 -78 38 -115 6 -35 -30 -37 -101 -5 -147 27 -37 76 -74 115 -87 l30 -10 6 -110 c8 -126 30 -213 61 -242 27 -26 83 -34 197 -30 109 5 125 16 150 110 l16 63 85 0 85 1 11 -50 c16 -70 32 -101 61 -114 31 -14 228 -14 255 0 59 32 89 246 69 502 -16 219 -20 200 42 231 62 30 110 73 161 141 24 32 59 62 94 81 37 21 58 39 60 53 2 15 -2 21 -15 21 -17 1 -17 1 1 15 26 19 14 49 -16 40 -21 -6 -22 -5 -5 8 35 29 15 67 -25 46 -23 -12 -23 -12 -5 9 11 11 16 26 12 31 -8 14 -42 14 -50 1 -11 -18 -25 -10 -22 13 1 17 -4 23 -24 25 -19 2 -33 -5 -53 -29 -25 -29 -127 -89 -150 -89 -6 0 0 11 14 23 28 25 89 100 107 133 36 66 40 246 7 371 -14 53 -14 57 3 67 10 5 37 28 60 50 117 117 78 320 -75 388 l-43 19 26 31 c103 122 91 301 -30 420 -71 71 -194 110 -285 92 -49 -10 -51 -9 -106 27 -94 65 -213 85 -311 54z m170 -20 c80 -21 126 -46 181 -99 26 -25 49 -46 52 -46 3 0 3 14 -1 31 l-7 31 78 -3 c131 -6 226 -69 280 -184 14 -29 19 -63 19 -120 0 -74 -3 -85 -33 -131 -32 -51 -57 -68 -140 -97 l-42 -15 -7 26 c-3 15 -11 31 -17 35 -7 5 -3 13 12 24 12 8 22 22 22 29 0 20 -8 18 -41 -10 -28 -24 -30 -24 -75 -9 -42 14 -44 17 -30 32 9 10 16 26 16 37 -1 16 -6 13 -29 -13 l-27 -33 -85 15 c-46 8 -98 15 -116 15 -29 0 -32 3 -35 33 -2 17 -7 32 -13 32 -5 0 -11 -15 -13 -32 -3 -28 -7 -33 -30 -33 -15 0 -81 -9 -146 -20 l-120 -20 -33 32 c-41 40 -55 30 -18 -14 l27 -32 -38 -17 c-50 -22 -59 -23 -90 -3 -32 22 -44 9 -17 -17 20 -21 20 -22 2 -40 -24 -24 -31 -24 -78 1 -84 42 -126 128 -119 242 12 177 125 275 311 269 24 -1 26 -3 17 -20 -18 -35 6 -31 41 5 55 58 120 98 189 116 81 21 84 21 153 3z m142 -530 c89 -17 134 -30 183 -52 32 -15 32 -16 32 -84 l0 -69 -37 18 c-82 41 -179 57 -343 56 -126 -1 -171 -5 -238 -23 -90 -24 -187 -63 -213 -87 -15 -13 -17 -12 -23 17 -8 40 -8 93 0 114 7 17 59 47 128 72 130 49 362 66 511 38z m75 -180 c168 -52 253 -146 323 -357 49 -144 64 -250 48 -325 -45 -202 -177 -302 -482 -364 -86 -18 -128 -20 -268 -17 -150 4 -174 7 -243 31 -105 38 -158 69 -208 123 -66 71 -93 141 -98 254 -8 191 61 393 177 511 77 79 175 125 326 155 97 19 350 12 425 -11z m63 -1102 c9 -32 19 -82 23 -110 6 -49 5 -53 -17 -62 -13 -5 -25 -8 -27 -6 -2 2 -41 220 -42 232 0 4 35 9 41 7 3 -2 13 -29 22 -61z m-526 4 c1 -1 -3 -22 -7 -47 -5 -25 -9 -71 -10 -104 0 -56 -1 -58 -22 -52 -13 3 -29 6 -37 6 -15 0 -11 61 10 161 10 48 12 50 37 44 15 -4 28 -7 29 -8z m590 -234 c4 -21 8 -90 8 -153 0 -149 -19 -214 -84 -281 -65 -67 -125 -84 -296 -84 -157 0 -217 17 -281 81 -73 74 -102 190 -89 360 l7 96 47 -6 c161 -22 481 -14 601 14 69 16 78 13 87 -27z"/>
<path d="M1930 3399 c-14 -5 -34 -22 -45 -37 -30 -40 -27 -187 4 -257 55 -124 190 -201 284 -162 146 62 71 348 -116 442 -53 26 -85 30 -127 14z m114 -211 c18 -25 21 -64 7 -73 -6 -3 -15 4 -21 15 -13 24 -58 27 -66 5 -11 -27 -23 -5 -14 25 13 44 19 50 50 50 18 0 34 -8 44 -22z"/>
<path d="M1424 3377 c-110 -48 -194 -149 -214 -260 -20 -107 18 -183 98 -194 73 -10 134 13 202 74 77 70 111 135 118 224 11 157 -66 216 -204 156z m104 -209 c17 -36 3 -69 -17 -44 -18 22 -41 20 -68 -5 -19 -19 -23 -20 -28 -6 -7 18 18 73 37 81 30 12 63 0 76 -26z"/>
<path d="M1694 3120 c-12 -5 -25 -13 -28 -19 -9 -14 11 -51 45 -82 25 -22 29 -33 29 -77 0 -50 -1 -52 -37 -70 -45 -23 -60 -20 -95 22 -22 24 -28 27 -28 13 0 -28 19 -57 44 -67 13 -5 32 -26 43 -47 17 -32 26 -38 56 -41 46 -4 83 20 91 58 4 21 11 30 24 30 22 0 47 25 56 57 9 30 -12 40 -23 11 -16 -41 -36 -51 -76 -38 -34 11 -35 12 -35 67 0 48 4 60 35 96 19 22 35 49 35 59 0 32 -84 49 -136 28z"/>
<path d="M1926 2289 c-62 -49 3 -138 70 -94 34 22 33 77 -1 99 -31 21 -37 20 -69 -5z"/>
<path d="M1501 2276 c-7 -8 -11 -32 -9 -53 2 -31 8 -39 31 -47 34 -12 56 -1 75 37 11 23 10 30 -4 52 -19 29 -73 35 -93 11z"/>
</g>
</svg>